<?xml version="1.0" encoding="UTF-8"?>
<svg xmlns="http://www.w3.org/2000/svg" width="100" height="24" viewBox="0 0 100 24" fill="none">
  <g clip-path="url(#clip0_746_404)">
    <path d="M21.9822 0C20.2123 0 18.77 1.4461 18.77 3.22056C18.77 4.99503 20.2123 6.44113 21.9822 6.44113C23.752 6.44113 25.1943 4.99503 25.1943 3.22056C25.1943 1.4461 23.752 0 21.9822 0Z" fill="#E71D73"></path>
    <path d="M23.2955 8.29187C22.925 7.90381 22.3891 7.69154 21.8565 7.72803H21.84C20.8674 7.79768 20.1859 8.46434 20.1793 9.34992V16.4279C20.1793 18.5605 18.4492 20.2919 16.3254 20.2919H7.50935C5.38225 20.2919 3.65543 18.5572 3.65543 16.4279V7.47264C3.65543 5.33997 5.38556 3.60862 7.50935 3.60862C9.63313 3.60862 11.3633 5.34328 11.3633 7.47264V12.4146C11.3633 12.6899 11.4228 12.9552 11.5419 13.2007C11.8065 13.7479 12.3226 14.1227 12.9181 14.2023C12.9941 14.2123 13.0768 14.2189 13.1629 14.2189C13.3448 14.2189 13.5267 14.1924 13.6988 14.1393L13.7219 14.1327C13.8939 14.0697 14.056 13.9768 14.2082 13.864C14.5324 13.6186 14.7706 13.2869 14.8996 12.9055L14.9062 12.8889C14.9327 12.7894 14.9525 12.6899 14.9591 12.6003C14.9658 12.5406 14.9691 12.4809 14.9691 12.4179V7.47595C14.9691 5.10448 13.8807 2.92537 11.9885 1.49585C11.5287 1.1476 11.0258 0.855722 10.5032 0.626866L10.4668 0.610282C9.53389 0.205639 8.54147 0.00331688 7.51927 0.00331688C6.65917 0.00331688 5.81891 0.149254 5.01505 0.434494C5.00513 0.434494 4.9952 0.441128 4.98528 0.444445L4.9522 0.454395C4.26743 0.706468 3.62566 1.05473 3.04674 1.49254C2.97727 1.54229 2.38513 1.96352 2.09071 2.27529C0.701313 3.76451 0 5.56882 0 7.64179V16.325C0 18.0597 0.489596 19.602 1.45886 20.9121C2.81518 22.7231 5.00513 23.8375 7.32078 23.8972C7.37702 23.8972 7.43326 23.8972 7.4895 23.8972H16.3254C16.3783 23.8972 16.4345 23.8972 16.4908 23.8972C16.5305 23.8972 16.5669 23.8972 16.6066 23.8972H16.7058C18.7337 23.8043 20.4109 23.0614 21.6878 21.6882C21.926 21.4395 22.1443 21.1774 22.3362 20.9154C23.0408 19.9768 23.5006 18.8491 23.6958 17.5622L23.7123 17.4527C23.7189 17.403 23.7256 17.3566 23.7289 17.3035C23.7355 17.2305 23.7421 17.1575 23.752 17.0779C23.7686 16.8723 23.7785 16.6567 23.7818 16.4279L23.7752 9.53897C23.7752 9.06468 23.6197 8.63682 23.2955 8.29519" fill="white"></path>
    <path d="M53.6671 19.8076V18.2919C53.1378 18.7695 52.5225 19.1376 51.851 19.4096C51.1695 19.6816 50.445 19.8109 49.6908 19.8109C48.5892 19.8109 47.5736 19.539 46.6639 18.9983C45.7442 18.4444 45.0198 17.7214 44.4806 16.8093C43.9513 15.9104 43.6701 14.8922 43.6602 13.7645V7.71808H45.7145V13.7844C45.7244 14.5307 45.9097 15.204 46.2537 15.801C46.611 16.398 47.0873 16.8723 47.6894 17.2206C48.2849 17.5788 48.9531 17.7612 49.6875 17.7612C50.4219 17.7612 51.0934 17.5755 51.6988 17.2206C52.2943 16.8624 52.7673 16.3847 53.1246 15.791C53.4819 15.1841 53.6539 14.5108 53.6638 13.7645V7.71808H55.7181V19.8076H53.6638H53.6671Z" fill="white"></path>
    <path d="M66.2709 8.54063C67.1906 9.08126 67.915 9.8209 68.4542 10.7297C69.0067 11.6517 69.2746 12.66 69.2746 13.7645C69.2746 14.869 69.0034 15.8872 68.4542 16.7993C67.915 17.7214 67.1906 18.4444 66.2709 18.9983C65.3645 19.539 64.3489 19.8109 63.244 19.8109C62.1391 19.8109 61.1268 19.539 60.2171 18.9983C59.2975 18.4444 58.5763 17.7214 58.0338 16.7993C57.4813 15.8905 57.2134 14.8823 57.2134 13.7645C57.2134 12.6468 57.4846 11.6517 58.0338 10.7297C58.573 9.8209 59.2975 9.08458 60.2171 8.54063C61.1235 8 62.1424 7.71808 63.244 7.71808C64.3456 7.71808 65.3612 8 66.2709 8.54063ZM61.236 10.3051C60.6306 10.6634 60.1543 11.1509 59.8003 11.7446C59.443 12.3516 59.271 13.0216 59.271 13.7612C59.271 14.5008 59.443 15.1708 59.8003 15.7778C60.1576 16.3847 60.6339 16.8624 61.236 17.2172C61.8414 17.5755 62.5096 17.7579 63.2473 17.7579C63.985 17.7579 64.6533 17.5755 65.2586 17.2172C65.8541 16.859 66.3404 16.3814 66.6943 15.7778C67.0516 15.1708 67.2236 14.5008 67.2236 13.7612C67.2236 13.0216 67.0516 12.3516 66.6943 11.7446C66.3371 11.1476 65.8508 10.66 65.2586 10.3051C64.6533 9.94693 63.985 9.77446 63.2473 9.77446C62.5096 9.77446 61.8414 9.94693 61.236 10.3051Z" fill="white"></path>
    <path d="M73.7768 18.995C72.8572 18.4411 72.1327 17.7181 71.6034 16.8192C71.0642 15.9104 70.783 14.8889 70.7698 13.7745V3.61194H72.8241V9.23383C73.3534 8.75622 73.9588 8.38806 74.6402 8.1194C75.3217 7.8607 76.0329 7.71808 76.8004 7.71808C77.902 7.71808 78.9176 8 79.8273 8.54063C80.747 9.08126 81.4681 9.81758 82.0106 10.7297C82.5631 11.6517 82.831 12.6567 82.831 13.7645C82.831 14.8723 82.5598 15.8872 82.0106 16.7993C81.4714 17.7214 80.747 18.4444 79.8273 18.9983C78.9209 19.539 77.902 19.8109 76.8004 19.8109C75.6988 19.8109 74.6832 19.539 73.7735 18.9983M78.8084 17.2206C79.4039 16.8624 79.8902 16.3847 80.2441 15.7811C80.6014 15.1741 80.7734 14.5041 80.7734 13.7645C80.7734 13.0249 80.6014 12.3549 80.2441 11.7479C79.8869 11.1509 79.4006 10.6633 78.8084 10.3085C78.203 9.95025 77.5348 9.77778 76.7971 9.77778C76.0594 9.77778 75.3912 9.95025 74.7858 10.3085C74.1804 10.6667 73.704 11.1542 73.3501 11.7479C72.9928 12.3549 72.8208 13.0249 72.8208 13.7645C72.8208 14.5041 72.9928 15.1741 73.3501 15.7811C73.7074 16.3881 74.1837 16.8657 74.7858 17.2206C75.3912 17.5788 76.0594 17.7612 76.7971 17.7612C77.5348 17.7612 78.203 17.5755 78.8084 17.2206Z" fill="white"></path>
    <path d="M86.3807 3.61194H84.3264V19.8076H86.3807V3.61194Z" fill="white"></path>
    <path d="M89.9401 7.71808V13.8076C89.95 14.5539 90.1253 15.2272 90.4793 15.8342C90.8366 16.4312 91.3129 16.9055 91.915 17.2637C92.5204 17.6219 93.1886 17.8043 93.9362 17.8043C94.6839 17.8043 95.3422 17.6186 95.9476 17.2637C96.5529 16.9055 97.0293 16.4279 97.3833 15.8342C97.7405 15.2371 97.9225 14.5672 97.9357 13.8176V7.71808H100V17.9436C99.9768 19.0713 99.6956 20.0763 99.1564 20.9884C98.6172 21.8972 97.8927 22.6368 96.9731 23.1774C96.0534 23.7181 95.0378 24 93.9362 24V21.9303C94.6276 21.9303 95.2529 21.7778 95.8285 21.466C96.4107 21.1509 96.8771 20.7197 97.2443 20.1857C97.6115 19.6551 97.8265 19.0481 97.9159 18.3648C97.3767 18.8292 96.7713 19.2007 96.0898 19.4693C95.4183 19.728 94.6971 19.8607 93.9396 19.8607C92.828 19.8607 91.8125 19.5887 90.8928 19.0381C89.9732 18.4975 89.2487 17.7612 88.6996 16.8391C88.1471 15.9171 87.8792 14.8988 87.8792 13.7944V7.71808H89.9434H89.9401Z" fill="white"></path>
    <path d="M39.1643 8.53731C40.0707 9.07794 40.7952 9.80431 41.3344 10.7131C41.8736 11.6119 42.1449 12.6302 42.1647 13.7446V23.8939H40.1137V18.2786C39.5844 18.7562 38.9691 19.1343 38.3009 19.393C37.6194 19.665 36.8983 19.7944 36.1407 19.7944C35.0391 19.7944 34.0235 19.5224 33.1171 18.9818C32.2008 18.4312 31.4763 17.7048 30.9371 16.7861C30.388 15.8773 30.1167 14.869 30.1167 13.7546C30.1167 12.6401 30.388 11.6451 30.9371 10.7231C31.4763 9.81426 32.2008 9.07794 33.1171 8.53731C34.0235 7.99668 35.0391 7.71476 36.1407 7.71476C37.2423 7.71476 38.2447 7.98673 39.1643 8.53731ZM34.136 10.3018C33.5306 10.66 33.0576 11.1443 32.7003 11.7413C32.343 12.3483 32.171 13.0182 32.171 13.7546C32.171 14.4909 32.343 15.1609 32.7003 15.7678C33.0576 16.3748 33.5306 16.8491 34.136 17.2073C34.7414 17.5655 35.4096 17.7479 36.144 17.7479C36.8784 17.7479 37.5467 17.5655 38.152 17.2073C38.7442 16.8491 39.2305 16.3748 39.5877 15.7678C39.945 15.1609 40.117 14.4909 40.117 13.7546C40.117 13.0182 39.945 12.3483 39.5877 11.7413C39.2305 11.1476 38.7475 10.66 38.152 10.3018C37.5467 9.94362 36.8784 9.77114 36.144 9.77114C35.4096 9.77114 34.7414 9.94362 34.136 10.3018Z" fill="white"></path>
  </g>
  <defs>
    <clipPath id="clip0_746_404">
      <rect width="100" height="24" fill="white"></rect>
    </clipPath>
  </defs>
</svg>
