<svg xmlns="http://www.w3.org/2000/svg" width="100%" viewBox="0 0 92 33" fill="none" class="nav_logo"><path d="M35.0612 7.70218C37.4927 7.70218 39.4969 8.50614 41.0739 10.1088C42.651 11.7167 43.4421 13.7001 43.4421 16.0697V16.7044C43.4421 17.1487 43.2206 17.3709 42.7776 17.3709H29.9398C30.0558 18.8254 30.6096 20.0155 31.6065 20.9411C32.5981 21.8667 33.8112 22.3321 35.2352 22.3321C37.0127 22.3321 38.5212 21.6287 39.7606 20.2218C40.0402 19.915 40.3355 19.8727 40.6362 20.0789L42.1816 21.0998C42.5349 21.3325 42.5771 21.6287 42.324 21.9778C40.71 24.1569 38.326 25.2465 35.1719 25.2465C32.6455 25.2465 30.5674 24.4214 28.9271 22.7659C27.2921 21.1103 26.4746 19.0317 26.4746 16.5246C26.4746 14.0175 27.2921 11.9759 28.9271 10.2622C30.5622 8.54845 32.6086 7.69689 35.0665 7.69689H35.0612V7.70218ZM40.1087 15.0859C39.9452 13.679 39.3967 12.5683 38.4631 11.7431C37.5296 10.9233 36.4061 10.5108 35.0981 10.5108C33.7901 10.5108 32.6666 10.9339 31.7331 11.7749C30.7995 12.6211 30.2246 13.7213 30.0136 15.0806H40.114H40.1087V15.0859Z" fill="currentColor"/><path d="M48.9483 24.7918C47.6139 24.7918 46.5906 24.448 45.8786 23.7551C45.1666 23.0622 44.8079 22.052 44.8079 20.7138V0.842222C44.8079 0.678257 44.8712 0.524869 45.0031 0.38735C45.1296 0.244541 45.2879 0.175781 45.4777 0.175781H47.5453C47.9672 0.175781 48.1782 0.397928 48.1782 0.842222V20.1849C48.1782 21.3591 48.7637 21.9409 49.9293 21.9409H50.8048C51.2479 21.9409 51.4694 22.1525 51.4694 22.5756V24.0513C51.4694 24.5432 51.2004 24.7918 50.6624 24.7918H48.943H48.9483Z" fill="currentColor"/><path d="M55.7999 4.46542C55.3463 4.93616 54.7872 5.16888 54.1332 5.16888C53.4792 5.16888 52.9254 4.93616 52.4665 4.46542C52.0129 3.99468 51.7809 3.4446 51.7809 2.80989C51.7809 2.17519 52.0077 1.59337 52.4665 1.12263C52.9201 0.651892 53.4792 0.419167 54.1332 0.419167C54.7872 0.419167 55.341 0.651892 55.7999 1.12263C56.2535 1.59337 56.4856 2.15403 56.4856 2.80989C56.4856 3.46576 56.2588 3.99468 55.7999 4.46542ZM55.1881 24.7919H53.1205C52.9307 24.7919 52.7777 24.7284 52.6458 24.5962C52.5193 24.4692 52.4507 24.3106 52.4507 24.1201V8.86076C52.4507 8.41646 52.6722 8.19431 53.1153 8.19431H55.1828C55.3674 8.19431 55.5204 8.25778 55.6364 8.39002C55.7524 8.51696 55.8105 8.67563 55.8105 8.86604V24.1307C55.8105 24.3211 55.7472 24.4745 55.6153 24.6068C55.4887 24.7337 55.341 24.8025 55.1775 24.8025L55.1881 24.7919Z" fill="currentColor"/><path d="M70.4414 24.1947V15.8271C70.4414 14.2562 70.03 13.0291 69.2125 12.1511C68.395 11.2731 67.2505 10.8341 65.7736 10.8341C64.2968 10.8341 63.1154 11.2996 62.2135 12.2252C61.3115 13.1508 60.8632 14.3514 60.8632 15.8324V24.2C60.8632 24.3639 60.7999 24.5067 60.6681 24.6231C60.5415 24.7395 60.3938 24.7976 60.2303 24.7976H58.1258C57.936 24.7976 57.7883 24.7395 57.6723 24.6231C57.5562 24.5067 57.4982 24.3534 57.4982 24.1682V8.86124C57.4982 8.67612 57.5562 8.51744 57.6723 8.38521C57.7883 8.25827 57.9412 8.18951 58.1258 8.18951H60.2303C60.3938 8.18951 60.5415 8.25298 60.6681 8.38521C60.7947 8.51215 60.8632 8.66025 60.8632 8.82422V10.6543C61.3537 9.78685 62.1132 9.08339 63.1417 8.54389C64.1702 8.00439 65.3517 7.73464 66.6861 7.73464C68.8591 7.73464 70.5891 8.40108 71.8761 9.73925C73.163 11.0774 73.8065 12.8123 73.8065 14.9438V24.1947C73.8065 24.3586 73.7432 24.5014 73.6113 24.6178C73.4847 24.7342 73.3265 24.7924 73.1366 24.7924H71.1007C70.9109 24.7924 70.7579 24.7342 70.626 24.6178C70.4995 24.5014 70.4309 24.3586 70.4309 24.1947H70.4414Z" fill="currentColor"/><path d="M74.6187 16.4615C74.6187 13.928 75.4309 11.844 77.0554 10.1991C78.6799 8.55943 80.6367 7.73961 82.9311 7.73961C84.218 7.73961 85.3678 8.01993 86.3857 8.58588C87.4037 9.14654 88.1474 9.88703 88.6115 10.8021V8.86621C88.6115 8.68109 88.6748 8.52241 88.8067 8.39018C88.9333 8.26324 89.0915 8.19448 89.2814 8.19448H91.3489C91.5335 8.19448 91.6865 8.25795 91.8025 8.39018C91.9185 8.51712 91.9766 8.6758 91.9766 8.86621V31.5464C91.9766 31.7315 91.9133 31.8849 91.7814 32.0012C91.6548 32.1176 91.5071 32.1758 91.3436 32.1758H89.2392C89.0757 32.1758 88.928 32.1176 88.8014 32.0012C88.6748 31.8849 88.6062 31.7315 88.6062 31.5464V22.158C88.0683 23.0942 87.3035 23.8453 86.3066 24.4112C85.3151 24.9719 84.1864 25.2575 82.9205 25.2575C80.6314 25.2575 78.6694 24.4324 77.0449 22.7768C75.4204 21.1213 74.6081 19.0215 74.6081 16.4615H74.6187ZM78.0576 16.4985C78.0576 18.0906 78.5586 19.4341 79.566 20.5236C80.5734 21.6132 81.834 22.158 83.353 22.158C84.872 22.158 86.1326 21.6132 87.14 20.5236C88.1474 19.4341 88.6484 18.0906 88.6484 16.4985C88.6484 14.9065 88.1474 13.5948 87.14 12.5052C86.1326 11.4156 84.872 10.8708 83.353 10.8708C81.834 10.8708 80.5681 11.4156 79.566 12.5052C78.5586 13.5948 78.0576 14.9277 78.0576 16.4985Z" fill="currentColor"/><path d="M18.104 4.95145V6.45888C18.104 6.77623 17.8878 7.0354 17.6241 7.0354H10.1239C9.86022 7.0354 9.64397 6.77623 9.64397 6.45888V4.95145C9.64397 4.6341 9.86022 4.37493 10.1239 4.37493H17.6241C17.8878 4.37493 18.104 4.6341 18.104 4.95145Z" fill="currentColor"/><path d="M12.5288 26.3624V27.8698C12.5288 28.1872 12.3126 28.4464 12.0489 28.4464H4.54874C4.28502 28.4464 4.06877 28.1872 4.06877 27.8698V26.3624C4.06877 26.0451 4.28502 25.7859 4.54874 25.7859H12.0489C12.3126 25.7859 12.5288 26.0451 12.5288 26.3624Z" fill="currentColor"/><path d="M23.8214 26.3624V27.8698C23.8214 28.1872 23.6051 28.4464 23.3414 28.4464H15.8413C15.5776 28.4464 15.3613 28.1872 15.3613 27.8698V26.3624C15.3613 26.0451 15.5776 25.7859 15.8413 25.7859H23.3414C23.6051 25.7859 23.8214 26.0451 23.8214 26.3624Z" fill="currentColor"/><path d="M29.2065 0.418119C29.0905 0.264731 28.927 0.190682 28.716 0.190682H26.4481C26.0736 0.190682 25.8151 0.391673 25.678 0.788364L19.5967 20.8927L16.0207 8.82797C15.8783 8.40483 15.6251 8.19327 15.2506 8.19327H12.6187C12.2232 8.19327 11.9753 8.40483 11.8803 8.82797L8.30432 20.8927L4.68611 8.79095C4.57008 8.39426 4.31164 8.19327 3.91606 8.19327H1.60062C1.36855 8.19327 1.18922 8.26731 1.07319 8.4207C0.957152 8.57409 0.946604 8.7645 1.03627 9.00252L6.01525 24.1614C6.17875 24.5845 6.45829 24.7961 6.85914 24.7961H9.62818C10.0712 24.7961 10.3508 24.5845 10.4721 24.1614L13.874 12.5886L17.2391 24.1614C17.3551 24.5845 17.6346 24.7961 18.083 24.7961H20.8203C21.2423 24.7961 21.5324 24.5845 21.6959 24.1614L21.8066 23.8282L29.2435 0.999932C29.3384 0.767207 29.3226 0.571506 29.2065 0.418119Z" fill="currentColor"/></svg>