<svg width="98" height="43" viewBox="0 0 98 43" fill="none" xmlns="http://www.w3.org/2000/svg">
<path d="M17.3192 7.23917H7.7919V9.48579H14.7576L8.02964 16.4931C7.91077 16.612 7.7919 16.7606 7.72058 16.927C7.64926 17.1231 7.62549 17.3133 7.62549 17.4797C7.62549 17.7947 7.74436 18.0622 7.95832 18.2761C8.19606 18.496 8.46351 18.6149 8.77257 18.6149H18.5614V16.3445H11.3342L18.0622 9.3372C18.181 9.21833 18.2761 9.09352 18.3474 8.95088C18.4425 8.78446 18.4663 8.58833 18.4663 8.42191C18.4663 8.10691 18.3712 7.81568 18.1335 7.57794C17.9195 7.35803 17.6283 7.23917 17.3192 7.23917Z" fill="white"/>
<path d="M54.0674 7.26285V9.48569H58.5428V18.6148H60.7954V9.50947H65.2232V7.28662H54.0674V7.26285Z" fill="white"/>
<path d="M41.1166 11.9701H36.0884V9.47976H41.1166C41.5207 9.47976 41.7882 9.59863 41.9784 9.79476C42.1686 9.99089 42.2874 10.2762 42.2874 10.7635C42.2874 11.2509 42.1686 11.4886 41.9784 11.6788L41.9546 11.7026C41.7882 11.869 41.5504 11.9701 41.1166 11.9701ZM43.7971 8.39805L43.6306 8.23164L43.488 8.06522H43.4642C42.8402 7.51248 42.0259 7.24503 41.1166 7.24503H33.8418V18.6208H36.0944V14.2226H41.1225C42.1032 14.2226 42.965 13.9314 43.6128 13.2776C44.2844 12.6238 44.5697 11.7799 44.5697 10.7635C44.5935 9.81853 44.4033 9.04589 43.803 8.39805H43.7971Z" fill="white"/>
<path fill-rule="evenodd" clip-rule="evenodd" d="M84.2066 7.23917L78.6792 18.6149H80.9971L86.5305 7.23917H84.2066Z" fill="#00EB80"/>
<path fill-rule="evenodd" clip-rule="evenodd" d="M87.8262 7.23917L82.3167 18.6149H84.6405L90.1679 7.23917H87.8262Z" fill="#00B578"/>
<path d="M71.1725 13.8066H68.2068L69.6926 10.7873L71.1785 13.8066H71.1725ZM75.2438 16.9745V16.9269L70.7446 7.77402C70.6495 7.57789 70.5069 7.43525 70.3167 7.31638C70.1503 7.22129 69.9601 7.14996 69.7402 7.14996C69.5203 7.14996 69.3123 7.22129 69.1399 7.31638C68.9735 7.43525 68.8071 7.58383 68.712 7.77402L64.2128 16.9031C64.2128 16.9031 64.189 16.9507 64.189 16.9745L63.3748 18.5911H65.9126L66.293 17.8184L67.1786 16.0295H72.3256L73.2111 17.8184L73.5677 18.6149H76.1056L75.2438 16.9745Z" fill="white"/>
<path d="M51.0302 13.8066H48.0644L49.5503 10.7873L51.0362 13.8066H51.0302ZM55.1015 16.9745V16.9269L50.6023 7.77402C50.5072 7.57789 50.3645 7.43525 50.1744 7.31638C50.0079 7.22129 49.8177 7.14996 49.5978 7.14996C49.3779 7.14996 49.164 7.22129 48.9976 7.31638C48.8311 7.43525 48.6647 7.58383 48.5696 7.77402L44.0704 16.9031C44.0704 16.9031 44.0467 16.9507 44.0467 16.9745L43.2324 18.5911H45.7703L46.1507 17.8184L47.0362 16.0295H52.1832L53.0688 17.8184L53.4254 18.6149H55.9633L55.1015 16.9745Z" fill="white"/>
<path d="M27.6844 13.8066H24.7187L26.2045 10.7873L27.6904 13.8066H27.6844ZM31.7557 16.9745V16.9269L27.2565 7.77402C27.1614 7.57789 27.0188 7.43525 26.8286 7.31638C26.6622 7.22129 26.472 7.14996 26.2521 7.14996C26.0322 7.14996 25.8242 7.22129 25.6518 7.31638C25.4854 7.43525 25.319 7.58383 25.2239 7.77402L20.6771 16.9031C20.6771 16.9031 20.6534 16.9507 20.6534 16.9745L19.8391 18.5911H22.377L22.7573 17.8184L23.6429 16.0295H28.7899L29.6755 17.8184L30.0321 18.6149H32.57L31.7557 16.9745Z" fill="white"/>
<path fill-rule="evenodd" clip-rule="evenodd" d="M0 4.65965C0 2.0802 2.07426 0 4.63588 0H97.4724V37.5387C97.4724 40.1182 95.3981 42.1984 92.8365 42.1984H0V4.65965ZM4.63588 1.4502C2.86474 1.4502 1.43831 2.88851 1.43831 4.65965V40.7482H92.8424C94.6136 40.7482 96.04 39.3099 96.04 37.5387V1.4502H4.63588Z" fill="white"/>
<path d="M78.3763 23.3419H80.6612L83.0418 31.9059H83.1057L87.8831 23.3419H90.1679L88.5701 34.6541H87.0363L88.3464 25.3551H88.3145L83.1856 34.6541H82.1631L79.6546 25.3551H79.6226L78.3124 34.6541H76.7786L78.3763 23.3419Z" fill="white"/>
<path d="M67.0305 23.3419H68.5643L67.5897 30.2602C67.5418 30.6597 67.5418 30.7555 67.5418 30.8674C67.5418 32.4492 68.3406 33.5037 69.9704 33.5037C71.7759 33.5037 73.0381 32.0977 73.2937 30.2123L74.2524 23.3419H75.7863L74.7637 30.5159C74.4122 32.8965 72.5108 34.9417 69.7627 34.9417C67.5098 34.9417 65.96 33.4558 65.96 31.2349C65.96 30.9952 66.0079 30.4679 66.0398 30.2922L67.0305 23.3419Z" fill="white"/>
<path d="M56.7851 23.3419H65.6048L65.3971 24.7799H61.7542L60.3641 34.6541H58.8303L60.2203 24.7799H56.5774L56.7851 23.3419Z" fill="white"/>
<path d="M45.3468 23.3419H47.36L52.2811 32.6409H52.3131L53.6233 23.3419H55.1571L53.5593 34.6541H51.6101L46.625 25.3551H46.5931L45.2829 34.6541H43.749L45.3468 23.3419Z" fill="white"/>
<path d="M37.6439 23.3419H39.0339L42.2774 34.6541H40.4879L39.7529 31.858H34.3684L32.8505 34.6541H31.061L37.6439 23.3419ZM37.9634 25.3231L35.0874 30.5159H39.3695L37.9954 25.3231H37.9634Z" fill="white"/>
<path d="M22.6391 23.3419H24.173L23.1983 30.2602C23.1504 30.6597 23.1504 30.7555 23.1504 30.8674C23.1504 32.4492 23.9493 33.5037 25.579 33.5037C27.3845 33.5037 28.6467 32.0977 28.9024 30.2123L29.861 23.3419H31.3949L30.3723 30.5159C30.0208 32.8965 28.1195 34.9417 25.3713 34.9417C23.1184 34.9417 21.5686 33.4558 21.5686 31.2349C21.5686 30.9952 21.6165 30.4679 21.6485 30.2922L22.6391 23.3419Z" fill="white"/>
<path d="M14.7298 23.0543C17.478 23.0543 19.7628 24.9237 19.7628 27.8796C19.7628 30.0845 18.5325 32.3693 16.4714 33.28V33.312H19.8267L19.635 34.6541H13.0521C10.2401 34.6541 8.00317 32.6729 8.00317 29.7649C8.00317 26.0741 11.1029 23.0543 14.7298 23.0543ZM9.66486 29.4773C9.66486 31.6503 11.0869 33.2161 13.2598 33.2161C15.9601 33.2161 18.1171 30.8035 18.1171 28.1192C18.1171 25.9463 16.5672 24.4923 14.4582 24.4923C11.7899 24.4923 9.66486 26.873 9.66486 29.4773Z" fill="white"/>
</svg>
