<svg xmlns="http://www.w3.org/2000/svg" width="91" height="24" fill="none"><path fill="#fff" d="M80.648 16.614a6.172 6.172 0 0 1 0-12.343c2.407 0 4.47 1.379 5.489 3.388h4.448C89.341 3.246 85.281 0 80.475 0c-3.781 0-7.102 2.01-8.952 5.017C69.673 2.01 66.353 0 62.57 0s-7.234 2.092-9.06 5.2C51.683 2.091 48.307 0 44.449 0s-7.148 2.037-8.99 5.078A10.51 10.51 0 0 0 26.466 0c-3.808 0-6.889 1.884-8.77 4.732a6 6 0 0 0-.158-.362 7.6 7.6 0 0 0-1.397-1.962c-.803-.8-1.82-1.4-3.02-1.786A12.2 12.2 0 0 0 9.38.044c-1.29 0-2.443.175-3.541.52-1.102.347-2.066.849-2.867 1.492a6.6 6.6 0 0 0-1.588 1.888c-.418.742-.63 1.504-.63 2.54 0 .65.12 1.276.357 1.862A5.2 5.2 0 0 0 2.14 9.95c.443.478.97.891 1.567 1.227a7 7 0 0 0 2.022.739c.953.203 1.95.351 2.96.44a62 62 0 0 1 2.796.323c.622.097 1.12.316 1.48.65.355.332.528.9.528 1.447 0 .497-.133.903-.396 1.205a2.7 2.7 0 0 1-1.03.724 5.4 5.4 0 0 1-1.376.352c-.494.063-.963.095-1.392.095-.721 0-1.335-.07-1.823-.205a4 4 0 0 1-1.322-.643c-.309-.24-.57-.57-.778-.98a2.7 2.7 0 0 1-.312-1.233v-.14H0v.14c0 .96.226 1.854.672 2.658.441.798.987 1.49 1.623 2.056a8.3 8.3 0 0 0 3.118 1.763c1.181.37 2.475.56 3.844.56 1.477 0 2.865-.182 4.127-.54 1.27-.36 2.361-.96 3.246-1.785a6.2 6.2 0 0 0 1.36-1.87l.064-.146a10.5 10.5 0 0 0 8.414 4.222c3.807 0 7.148-2.036 8.99-5.078 1.843 3.042 5.184 5.078 8.992 5.078 3.807 0 7.234-2.092 9.06-5.199 1.827 3.107 5.203 5.2 9.06 5.2a10.5 10.5 0 0 0 3.81-.719l2.85 3.69 3.301-2.727-2.632-3.233a10.6 10.6 0 0 0 1.623-2.03c1.85 3.008 5.171 5.018 8.954 5.018 4.616 0 8.544-2.995 9.95-7.142h-4.662c-1.107 1.656-2.974 2.747-5.116 2.747m-68.06-7.851-1.237-.18-.071-.01a40 40 0 0 0-1.026-.134l-.98-.115q-.493-.057-1.225-.133l-.299-.02c-.518-.067-1.007-.13-1.442-.396-.458-.28-.73-.867-.73-1.572 0-.477.142-.87.435-1.203.296-.337.67-.593 1.112-.763a3.6 3.6 0 0 1 1.062-.257c.385-.029.839-.04 1.233-.038a5 5 0 0 1 1.53.24c.483.16.872.373 1.15.632.235.244.434.516.59.807q.229.428.23.963v.14h3.75c-.38.98-.617 2.029-.685 3.124-.88-.526-1.97-.87-3.396-1.085Zm13.857-4.577c5.041 0 5.611 4.423 5.611 4.423H20.879c.905-2.865 2.95-4.423 5.566-4.423m4.44 10.49s-1.171 1.943-4.286 1.943c-3.673 0-5.195-2.229-5.628-4.172h13.156c.146.776.376 1.522.683 2.229zm13.542-10.49c5.041 0 5.61 4.423 5.61 4.423H38.862c.905-2.865 2.95-4.423 5.566-4.423Zm4.44 10.49s-1.172 1.943-4.287 1.943c-3.673 0-5.194-2.229-5.628-4.172H52.25c.146.776.376 1.522.683 2.229h-4.065Zm13.843 1.938a6.172 6.172 0 1 1 0-12.344 6.172 6.172 0 0 1 0 12.344m27.196 4.68a.66.66 0 0 0-.354-.352.65.65 0 0 0-.722.142.7.7 0 0 0-.142.21.64.64 0 0 0 .142.719.65.65 0 0 0 .722.141.66.66 0 0 0 .406-.607.6.6 0 0 0-.052-.253m-.136.452a.513.513 0 0 1-.986-.198.5.5 0 0 1 .15-.359.52.52 0 0 1 .364-.15.5.5 0 0 1 .36.15.5.5 0 0 1 .112.557"/><path fill="#fff" d="M89.44 21.616a.2.2 0 0 0 .077-.071.19.19 0 0 0 .014-.18.2.2 0 0 0-.044-.063.2.2 0 0 0-.146-.06h-.268v.614h.155v-.217h.055l.13.217h.18l-.029-.036-.123-.206v.002Zm-.068-.122a.08.08 0 0 1-.058.019h-.086v-.14h.086q.039 0 .058.021.02.019.02.05a.07.07 0 0 1-.02.05"/></svg>